Coordinates
version=1
nRows=16
nColumns=40
inDegrees=yes

Units are S.I. units (second, meters, Newtons, ...)
Angles are in degrees.

endheader
time	pelvis_tilt	pelvis_list	pelvis_rotation	pelvis_tx	pelvis_ty	pelvis_tz	hip_flexion_r	hip_adduction_r	hip_rotation_r	knee_angle_r	knee_angle_r_beta	ankle_angle_r	subtalar_angle_r	mtp_angle_r	hip_flexion_l	hip_adduction_l	hip_rotation_l	knee_angle_l	knee_angle_l_beta	ankle_angle_l	subtalar_angle_l	mtp_angle_l	lumbar_extension	lumbar_bending	lumbar_rotation	arm_flex_r	arm_add_r	arm_rot_r	elbow_flex_r	pro_sup_r	wrist_flex_r	wrist_dev_r	arm_flex_l	arm_add_l	arm_rot_l	elbow_flex_l	pro_sup_l	wrist_flex_l	wrist_dev_l
      1.48042857	     -3.33628464	     -4.61524426	      8.57295353	      1.05379447	      0.92987936	      0.50136881	     11.39981668	      2.30187707	    -15.99394210	     17.09815268	     17.09815268	     10.45603113	     -7.03263856	     -5.41879267	     31.46027571	     -9.81648324	      0.94856345	     40.64898842	     40.64898842	      8.56109202	    -18.16505226	      9.99156317	    -11.59611892	      3.49134201	      0.72304257	     21.68038832	    -19.07541846	      0.03628278	     71.07657075	     44.82625088	      0.00000000	      0.00000000	      8.39459180	     -6.32096624	     -9.49452275	     23.82766040	     47.04514529	      0.00000000	      0.00000000
      1.49335714	     -3.71830077	     -4.36374348	      9.00459398	      1.05228543	      0.93005540	      0.50035349	     11.27317232	      1.98808024	    -16.17303330	     16.68735048	     16.68735048	     10.52383302	     -7.16097349	     -5.38298827	     31.52959156	     -8.82332913	      1.33437701	     36.48911584	     36.48911584	      8.83282006	    -17.18246531	     10.09656479	    -11.52482880	      3.20063221	      0.65648736	     23.19254952	    -19.10568095	     -0.20488730	     72.29859370	     44.80541969	      0.00000000	      0.00000000	      7.45547345	     -6.27223277	     -9.51677041	     23.29689896	     47.02886751	      0.00000000	      0.00000000
      1.50628571	     -4.00896354	     -4.17737266	      9.41365466	      1.05091080	      0.93021630	      0.49926616	     11.03764071	      1.74349173	    -16.44475511	     16.27716897	     16.27716897	     10.61096676	     -7.10533125	     -5.43861801	     31.43580855	     -7.93868482	      1.81915234	     32.41499814	     32.41499814	      8.95447746	    -15.83534248	      9.82859682	    -11.56493460	      3.01538308	      0.47660006	     24.67387058	    -18.99227542	     -0.36168642	     73.94267659	     44.76934434	      0.00000000	      0.00000000	      6.46660502	     -6.27833112	     -9.54247496	     22.79264005	     47.01071698	      0.00000000	      0.00000000
      1.51921429	     -4.46973042	     -4.30586254	      9.81157437	      1.04941187	      0.92975615	      0.49817173	     11.14641894	      1.77434147	    -16.76441393	     16.05298836	     16.05298836	     10.69441659	     -7.17484090	     -5.49211629	     31.79423331	     -7.36427539	      2.51756339	     28.93421177	     28.93421177	      9.20380746	    -14.11407463	      9.88883398	    -11.31305027	      3.17014708	      0.71836057	     26.13805491	    -19.36015853	     -0.62566768	     74.86915769	     44.75649474	      0.00000000	      0.00000000	      5.63571810	     -6.08464143	     -9.55404573	     22.48979445	     46.99444929	      0.00000000	      0.00000000
      1.53214286	     -4.59366716	     -3.97961164	     10.06855862	      1.04850443	      0.93016724	      0.49701491	     10.57489449	      1.43884276	    -16.98329223	     15.44977739	     15.44977739	     10.80326042	     -6.80472567	     -5.63347194	     31.32498227	     -6.58371545	      2.63637114	     25.27812647	     25.27812647	      9.18491119	    -11.93695696	      9.29725842	    -11.57124341	      2.82842951	      0.47399221	     27.38530350	    -18.92454388	     -0.63320243	     76.99414606	     44.70120989	      0.00000000	      0.00000000	      4.51176243	     -6.22789383	     -9.60205649	     22.27237391	     46.97291815	      0.00000000	      0.00000000
      1.54507143	     -4.89660429	     -3.93445491	     10.31558067	      1.04753409	      0.92998780	      0.49586666	     10.36254707	      1.34551906	    -17.21662134	     15.05920314	     15.05920314	     10.92822913	     -6.63548441	     -5.77089323	     31.35355798	     -6.06138749	      2.91275391	     22.40327769	     22.40327769	      9.16824721	     -9.94391997	      9.00449471	    -11.50362827	      2.75487671	      0.66690898	     28.53477592	    -18.90920914	     -0.75334444	     78.30339819	     44.67476875	      0.00000000	      0.00000000	      3.55182425	     -6.20126050	     -9.64213505	     22.22761040	     46.95264796	      0.00000000	      0.00000000
      1.55800000	     -5.13057462	     -3.92679303	     10.50949575	      1.04671260	      0.92980609	      0.49467750	     10.06171553	      1.31198328	    -17.43329022	     14.64413513	     14.64413513	     11.03279740	     -6.38359100	     -5.91312970	     31.40077619	     -5.65020129	      3.07483898	     20.14295041	     20.14295041	      9.16281719	     -8.09381977	      8.67145971	    -11.50297289	      2.75360820	      0.81121743	     29.68267545	    -18.78295630	     -0.88574434	     79.58413405	     44.65109427	      0.00000000	      0.00000000	      2.55794707	     -6.19795867	     -9.68663736	     22.30185276	     46.93011181	      0.00000000	      0.00000000
      1.57092857	     -5.38881417	     -3.99073077	     10.66952246	      1.04601389	      0.92947765	      0.49347611	      9.82561315	      1.34619488	    -17.61172552	     14.29031584	     14.29031584	     11.18068693	     -6.18612266	     -6.02753186	     31.60643442	     -5.34282175	      3.19025533	     18.56684760	     18.56684760	      9.09557086	     -6.69546774	      8.49569234	    -11.41252234	      2.79872651	      1.05089777	     30.76734132	    -18.64060295	     -1.01996506	     80.50583884	     44.63667098	      0.00000000	      0.00000000	      1.66179177	     -6.16746585	     -9.72502292	     22.33294308	     46.91103081	      0.00000000	      0.00000000
      1.58385714	     -5.52695344	     -4.05064313	     10.78925928	      1.04562022	      0.92922453	      0.49219993	      9.38476253	      1.40791794	    -17.83968731	     13.82961734	     13.82961734	     11.32133645	     -5.77707643	     -6.20117684	     31.77112874	     -5.13639899	      2.99468333	     17.66618150	     17.66618150	      8.99363708	     -5.53055872	      7.87242238	    -11.44754414	      2.85452696	      1.14265509	     31.82569291	    -18.28691031	     -1.16378390	     81.53998294	     44.62616156	      0.00000000	      0.00000000	      0.56837150	     -6.20361058	     -9.78562016	     22.70563796	     46.88261922	      0.00000000	      0.00000000
      1.59678571	     -5.67894760	     -4.14395878	     10.85943461	      1.04541730	      0.92888061	      0.49087972	      8.99051801	      1.50377601	    -17.98779354	     13.43588037	     13.43588037	     11.48966044	     -5.44720757	     -6.33664321	     31.96653811	     -4.99429077	      2.75926875	     17.27970293	     17.27970293	      8.78906996	     -4.97651791	      7.31863716	    -11.39646028	      2.94095276	      1.28300942	     32.77900514	    -17.89731636	     -1.29125219	     82.20910155	     44.62555337	      0.00000000	      0.00000000	     -0.43370721	     -6.23010392	     -9.82744493	     22.91585304	     46.85609494	      0.00000000	      0.00000000
      1.60971429	     -5.84250224	     -4.24780783	     10.87470365	      1.04541428	      0.92836490	      0.48952518	      8.67649253	      1.59430465	    -18.04474109	     13.19282729	     13.19282729	     11.70459063	     -5.27501939	     -6.41036494	     32.19539662	     -4.89182158	      2.53034142	     17.41035867	     17.41035867	      8.65886022	     -5.03465752	      7.05611567	    -11.26864597	      2.99596161	      1.65095707	     33.57759343	    -17.69714714	     -1.38749448	     82.56032010	     44.62563098	      0.00000000	      0.00000000	     -1.12464377	     -6.21916556	     -9.85364734	     22.85186863	     46.84253158	      0.00000000	      0.00000000
      1.62264286	     -5.98445194	     -4.32005087	     10.86190508	      1.04569272	      0.92781628	      0.48801091	      8.36261366	      1.63808664	    -18.02464097	     13.05437550	     13.05437550	     11.98939095	     -5.20233570	     -6.48761194	     32.22202882	     -4.81210064	      2.16226447	     17.65302755	     17.65302755	      8.45710126	     -5.27644714	      7.02353671	    -11.12190446	      3.04458274	      2.10824390	     34.03703841	    -17.55328930	     -1.41994854	     82.75277966	     44.62357030	      0.00000000	      0.00000000	     -1.74933072	     -6.26493757	     -9.88694469	     22.66802492	     46.83602573	      0.00000000	      0.00000000
      1.63557143	     -6.08884600	     -4.41940371	     10.77724828	      1.04632034	      0.92716290	      0.48650384	      7.97346648	      1.73452440	    -17.95778729	     12.87103692	     12.87103692	     12.30525875	     -5.03931903	     -6.57406574	     32.15693457	     -4.83924527	      1.65073040	     18.16745454	     18.16745454	      8.19648769	     -5.73644404	      6.96353094	    -10.98676313	      3.11820919	      2.51110997	     34.50318598	    -17.30468569	     -1.45211357	     82.97993628	     44.62041002	      0.00000000	      0.00000000	     -2.37280731	     -6.30061183	     -9.91604239	     22.47705721	     46.82873203	      0.00000000	      0.00000000
      1.64850000	     -5.93108245	     -4.79362103	     10.69249482	      1.04754585	      0.92633923	      0.48499255	      7.08982537	      2.18651249	    -18.34781760	     12.26854318	     12.26854318	     12.59626245	     -3.84361139	     -6.68692803	     32.05876381	     -5.22187879	      1.39264720	     19.25673485	     19.25673485	      7.12084776	     -6.71727018	      4.09857487	    -10.98912650	      3.46417855	      1.88536166	     35.61563643	    -15.69336896	     -1.78922660	     82.62311285	     44.70067766	      0.00000000	      0.00000000	     -3.80869964	     -6.35160683	     -9.90505833	     23.47496430	     46.75357969	      0.00000000	      0.00000000
      1.66142857	     -5.92571286	     -4.92850934	     10.51388143	      1.04885829	      0.92545934	      0.48340579	      6.57325561	      2.33275421	    -18.18965881	     12.14203670	     12.14203670	     12.95262312	     -3.66833161	     -6.76254809	     31.75584914	     -5.38939304	      0.99396576	     20.02957857	     20.02957857	      6.81287563	     -7.35617783	      4.09902640	    -10.84118366	      3.52805522	      2.21646626	     35.76582525	    -15.34250508	     -1.72441856	     82.75370561	     44.69825531	      0.00000000	      0.00000000	     -4.26934141	     -6.38902287	     -9.90329814	     23.26197764	     46.74336428	      0.00000000	      0.00000000
      1.67435714	     -5.87452656	     -5.13281909	     10.36613408	      1.05045157	      0.92445701	      0.48169725	      5.97636689	      2.55302080	    -18.09471273	     11.97880054	     11.97880054	     13.33028611	     -3.38827475	     -6.79719353	     31.42665701	     -5.61258700	      0.73901631	     20.88881269	     20.88881269	      6.48637965	     -8.03746774	      4.05641541	    -10.70695568	      3.67471059	      2.41657252	     35.82077704	    -14.83475779	     -1.70289750	     82.80816061	     44.70036083	      0.00000000	      0.00000000	     -4.70419795	     -6.43902019	     -9.87960567	     23.02979215	     46.72929614	      0.00000000	      0.00000000
